<svg version="1.0" xmlns="http://www.w3.org/2000/svg" width="458.667" height="458.667" viewBox="0 0 344 344">
  <path d="M80.1 46.7c-2.3 2.4-10.7 16.7-22 37.5C48 102.8 39.7 118 39.6 118s-1.9-.9-4.1-2c-6.8-3.5-13.8-2-18.8 3.9-2.3 2.8-2.7 4.2-2.7 9.3v6l7 7.2 7 7.3v69.7c0 75.4-.1 73.4 5.4 78.6 2.6 2.3 3.5 2.5 15.4 2.8 14.7.4 17.5-.5 21.1-6.8 1.7-3 2.1-5.4 2.1-12.4V273h200v8.6c0 7 .4 9.4 2.1 12.4 3.6 6.3 6.4 7.2 21.1 6.8 11.9-.3 12.8-.5 15.4-2.8 5.5-5.2 5.4-3.2 5.4-78.8v-69.8l5.6-5.4c6.6-6.6 8.4-9.6 8.4-14.7 0-11.3-11.5-18.6-21.3-13.5l-3.8 2-17.4-34.7c-12.6-25.2-18.2-35.5-20.5-37.5l-3.2-2.6h-180l-3.7 3.7zm185.6 59.7c12.8 25.6 16.9 34.6 16 35.5-.8.8-30.2 1.1-109.9 1.1-94 0-108.9-.2-109.4-1.4s18.4-37.1 33.8-64.4l2.9-5.2h149.4l17.2 34.4zM106.8 189c1.8 1.1 4.1 3.4 5.2 5.2 5.2 8.6-1.2 19.8-11.3 19.8-7.8 0-13.7-5.8-13.7-13.5 0-10.3 11.1-16.8 19.8-11.5zm142.7-.6c6.8 2.9 9.6 12.6 5.5 19.3-5.3 8.8-19 8.2-23.3-1-2.2-4.6-2.1-8.5.3-12.5 3.9-6.4 10.6-8.6 17.5-5.8z"/>
  <path d="M112.5 87.4c-1.6.8-4.4 2.9-6.2 4.7-8.8 9.3-8.3 23.4 1.2 31.7 4.8 4.3 7.3 5.2 14.6 5.2 7.2 0 12.4-2.4 16.7-7.6 8.7-10.5 5.2-27.3-6.9-33.4-4.5-2.4-14.8-2.7-19.4-.6zm50 1.7c-11.9 10.5-2.6 28.4 13.2 25.4 11.4-2.1 14.9-17.4 5.8-25.4-3.1-2.7-4.3-3.1-9.5-3.1s-6.4.4-9.5 3.1zm49.3-1.1c-6.7 3.6-11.8 11.9-11.8 19.5 0 7.7 5.1 16 12.1 19.5 4.2 2.2 13.9 2.7 18.2 1.1 4-1.6 9.9-7.3 11.8-11.6 2.4-5.1 2.4-12.9 0-18-1.9-4.3-7.8-10-11.8-11.6-4.3-1.6-14.5-1-18.5 1.1z"/>
</svg>
