<svg version="1.0" xmlns="http://www.w3.org/2000/svg" width="458.667" height="458.667" viewBox="0 0 344 344">
    <path d="M69 118.6c-5.9 2.5-8.8 6.2-18.6 23.5l-9.5 16.7-8.7.7c-14 1.1-19.3 2.3-23.4 5-4.8 3.2-8.8 11-8.8 17.2v4.3h14.1l-.3 6.7-.3 6.8-6.7.3-6.8.3v8.7c0 10.2 1.8 15.1 7.3 19.9 4.7 4.1 9.1 5.3 19.7 5.3h8.6l1.3 3.7c1.8 5 8.3 11.7 13.8 14.3 6.3 3 15.2 3 22.1 0 5.9-2.6 12.4-9 14.3-14.3l1.3-3.7h174.2l1.3 3.7c3.3 9.2 14.5 16.5 25.1 16.5s21.8-7.3 25.1-16.5c1.3-3.6 1.4-3.7 6.4-3.7 14.4 0 23.4-8.6 23.5-22.3V206h-14v-13h14v-3c0-6.5-5.1-14.4-11.5-17.8-1.6-.8-15.5-4.1-30.9-7.3-15.9-3.3-28.5-6.3-29.3-7.2-.8-.8-7.6-8.6-15.1-17.3-12.4-14.3-14.4-16.3-20.6-19.4l-6.9-3.5-78.6-.2c-68.7-.2-79-.1-82.1 1.3zm27 25.9V158H57.1l7-12.3c3.9-6.7 7.7-12.8 8.6-13.5 1.1-.8 5.4-1.2 12.5-1.2H96v13.5zm97 0V158h-83v-27h83v13.5zm36.3-12.1c3.8 1.6 6.6 4.2 17 16.4l7.8 9.2H206v-27h10c6.2 0 11.3.5 13.3 1.4zM70.1 216.1c7 4.9 6.8 17.4-.3 22.3-10.5 7.4-24.9-3.5-20.9-15.7 2.9-8.7 13.6-12.1 21.2-6.6zm226.5-.5c10 6.6 6.7 22.8-5.1 25-10 1.9-18.8-8.1-15.6-17.9 2.8-8.4 13.2-12 20.7-7.1z"/>
</svg>
