<svg xmlns="http://www.w3.org/2000/svg" xmlns:xlink="http://www.w3.org/1999/xlink" width="1440" height="560" preserveAspectRatio="none" viewBox="0 0 1440 560">
	<g fill="none" mask="url(&quot;#SvgjsMask1008&quot;)">
		<path fill="#0e2a47" d="M0 0h1440v560H0z"/>
		<use xlink:href="#a"/>
		<use xlink:href="#a" x="720"/>
	</g>
	<defs>
		<path id="g" d="M-1 0a1 1 0 1 0 2 0 1 1 0 1 0-2 0z"/>
		<path id="d" d="M-3 0a3 3 0 1 0 6 0 3 3 0 1 0-6 0z"/>
		<path id="c" d="M-5 0A5 5 0 1 0 5 0 5 5 0 1 0-5 0z"/>
		<path id="e" d="m2-2-4 4z"/>
		<path id="f" d="M6-6-6 6z"/>
		<path id="b" d="m30-30-60 60z"/>
	</defs>
	<symbol id="a">
		<use xlink:href="#b" x="30" y="30" stroke="rgba(57, 233, 145, 1)" stroke-width="3"/>
		<use xlink:href="#c" x="30" y="90" stroke="rgba(57, 233, 145, 1)"/>
		<use xlink:href="#d" x="30" y="150" stroke="rgba(57, 233, 145, 1)"/>
		<use xlink:href="#e" x="30" y="210" stroke="rgba(57, 233, 145, 1)"/>
		<use xlink:href="#f" x="30" y="270" stroke="rgba(57, 233, 145, 1)"/>
		<use xlink:href="#g" x="30" y="330" stroke="rgba(57, 233, 145, 1)"/>
		<use xlink:href="#e" x="30" y="390" stroke="rgba(57, 233, 145, 1)"/>
		<use xlink:href="#f" x="30" y="450" stroke="rgba(57, 233, 145, 1)"/>
		<use xlink:href="#g" x="30" y="510" stroke="rgba(57, 233, 145, 1)"/>
		<use xlink:href="#f" x="30" y="570" stroke="rgba(57, 233, 145, 1)"/>
		<use xlink:href="#f" x="90" y="30" stroke="rgba(57, 233, 145, 1)"/>
		<use xlink:href="#f" x="90" y="90" stroke="rgba(57, 233, 145, 1)"/>
		<use xlink:href="#b" x="90" y="150" stroke="rgba(57, 233, 145, 1)" stroke-width="3"/>
		<use xlink:href="#f" x="90" y="210" stroke="rgba(57, 233, 145, 1)"/>
		<use xlink:href="#g" x="90" y="270" stroke="rgba(57, 233, 145, 1)"/>
		<use xlink:href="#d" x="90" y="330" stroke="rgba(57, 233, 145, 1)"/>
		<use xlink:href="#f" x="90" y="390" stroke="rgba(57, 233, 145, 1)"/>
		<use xlink:href="#e" x="90" y="450" stroke="rgba(57, 233, 145, 1)"/>
		<use xlink:href="#f" x="90" y="510" stroke="rgba(57, 233, 145, 1)"/>
		<use xlink:href="#f" x="90" y="570" stroke="rgba(57, 233, 145, 1)"/>
		<use xlink:href="#f" x="150" y="30" stroke="rgba(57, 233, 145, 1)"/>
		<use xlink:href="#e" x="150" y="90" stroke="rgba(57, 233, 145, 1)"/>
		<use xlink:href="#f" x="150" y="150" stroke="rgba(57, 233, 145, 1)"/>
		<use xlink:href="#c" x="150" y="210" stroke="rgba(57, 233, 145, 1)"/>
		<use xlink:href="#e" x="150" y="270" stroke="rgba(57, 233, 145, 1)"/>
		<use xlink:href="#c" x="150" y="330" stroke="rgba(57, 233, 145, 1)"/>
		<use xlink:href="#c" x="150" y="390" stroke="rgba(57, 233, 145, 1)"/>
		<use xlink:href="#c" x="150" y="450" stroke="rgba(57, 233, 145, 1)"/>
		<use xlink:href="#d" x="150" y="510" stroke="rgba(57, 233, 145, 1)"/>
		<use xlink:href="#e" x="150" y="570" stroke="rgba(57, 233, 145, 1)"/>
		<use xlink:href="#b" x="210" y="30" stroke="rgba(57, 233, 145, 1)" stroke-width="3"/>
		<use xlink:href="#f" x="210" y="90" stroke="rgba(57, 233, 145, 1)"/>
		<use xlink:href="#g" x="210" y="150" stroke="rgba(57, 233, 145, 1)"/>
		<use xlink:href="#c" x="210" y="210" stroke="rgba(57, 233, 145, 1)"/>
		<use xlink:href="#c" x="210" y="270" stroke="rgba(57, 233, 145, 1)"/>
		<use xlink:href="#f" x="210" y="330" stroke="rgba(57, 233, 145, 1)"/>
		<use xlink:href="#d" x="210" y="390" stroke="rgba(57, 233, 145, 1)"/>
		<use xlink:href="#g" x="210" y="450" stroke="rgba(57, 233, 145, 1)"/>
		<use xlink:href="#f" x="210" y="510" stroke="rgba(57, 233, 145, 1)"/>
		<use xlink:href="#f" x="210" y="570" stroke="rgba(57, 233, 145, 1)"/>
		<use xlink:href="#g" x="270" y="30" stroke="rgba(57, 233, 145, 1)"/>
		<use xlink:href="#e" x="270" y="90" stroke="rgba(57, 233, 145, 1)"/>
		<use xlink:href="#g" x="270" y="150" stroke="rgba(57, 233, 145, 1)"/>
		<use xlink:href="#f" x="270" y="210" stroke="rgba(57, 233, 145, 1)"/>
		<use xlink:href="#f" x="270" y="270" stroke="rgba(57, 233, 145, 1)"/>
		<use xlink:href="#e" x="270" y="330" stroke="rgba(57, 233, 145, 1)"/>
		<use xlink:href="#g" x="270" y="390" stroke="rgba(57, 233, 145, 1)"/>
		<use xlink:href="#g" x="270" y="450" stroke="rgba(57, 233, 145, 1)"/>
		<use xlink:href="#d" x="270" y="510" stroke="rgba(57, 233, 145, 1)"/>
		<use xlink:href="#g" x="270" y="570" stroke="rgba(57, 233, 145, 1)"/>
		<use xlink:href="#f" x="330" y="30" stroke="rgba(57, 233, 145, 1)"/>
		<use xlink:href="#e" x="330" y="90" stroke="rgba(57, 233, 145, 1)"/>
		<use xlink:href="#e" x="330" y="150" stroke="rgba(57, 233, 145, 1)"/>
		<use xlink:href="#g" x="330" y="210" stroke="rgba(57, 233, 145, 1)"/>
		<use xlink:href="#f" x="330" y="270" stroke="rgba(57, 233, 145, 1)"/>
		<use xlink:href="#b" x="330" y="330" stroke="rgba(57, 233, 145, 1)" stroke-width="3"/>
		<use xlink:href="#c" x="330" y="390" stroke="rgba(57, 233, 145, 1)"/>
		<use xlink:href="#b" x="330" y="450" stroke="rgba(57, 233, 145, 1)" stroke-width="3"/>
		<use xlink:href="#f" x="330" y="510" stroke="rgba(57, 233, 145, 1)"/>
		<use xlink:href="#g" x="330" y="570" stroke="rgba(57, 233, 145, 1)"/>
		<use xlink:href="#c" x="390" y="30" stroke="rgba(57, 233, 145, 1)"/>
		<use xlink:href="#f" x="390" y="90" stroke="rgba(57, 233, 145, 1)"/>
		<use xlink:href="#d" x="390" y="150" stroke="rgba(57, 233, 145, 1)"/>
		<use xlink:href="#c" x="390" y="210" stroke="rgba(57, 233, 145, 1)"/>
		<use xlink:href="#b" x="390" y="270" stroke="rgba(57, 233, 145, 1)" stroke-width="3"/>
		<use xlink:href="#c" x="390" y="330" stroke="rgba(57, 233, 145, 1)"/>
		<use xlink:href="#c" x="390" y="390" stroke="rgba(57, 233, 145, 1)"/>
		<use xlink:href="#f" x="390" y="450" stroke="rgba(57, 233, 145, 1)"/>
		<use xlink:href="#f" x="390" y="510" stroke="rgba(57, 233, 145, 1)"/>
		<use xlink:href="#e" x="390" y="570" stroke="rgba(57, 233, 145, 1)"/>
		<use xlink:href="#f" x="450" y="30" stroke="rgba(57, 233, 145, 1)"/>
		<use xlink:href="#e" x="450" y="90" stroke="rgba(57, 233, 145, 1)"/>
		<use xlink:href="#f" x="450" y="150" stroke="rgba(57, 233, 145, 1)"/>
		<use xlink:href="#d" x="450" y="210" stroke="rgba(57, 233, 145, 1)"/>
		<use xlink:href="#b" x="450" y="270" stroke="rgba(57, 233, 145, 1)" stroke-width="3"/>
		<use xlink:href="#d" x="450" y="330" stroke="rgba(57, 233, 145, 1)"/>
		<use xlink:href="#e" x="450" y="390" stroke="rgba(57, 233, 145, 1)"/>
		<use xlink:href="#f" x="450" y="450" stroke="rgba(57, 233, 145, 1)"/>
		<use xlink:href="#e" x="450" y="510" stroke="rgba(57, 233, 145, 1)"/>
		<use xlink:href="#c" x="450" y="570" stroke="rgba(57, 233, 145, 1)"/>
		<use xlink:href="#c" x="510" y="30" stroke="rgba(57, 233, 145, 1)"/>
		<use xlink:href="#f" x="510" y="90" stroke="rgba(57, 233, 145, 1)"/>
		<use xlink:href="#g" x="510" y="150" stroke="rgba(57, 233, 145, 1)"/>
		<use xlink:href="#f" x="510" y="210" stroke="rgba(57, 233, 145, 1)"/>
		<use xlink:href="#f" x="510" y="270" stroke="rgba(57, 233, 145, 1)"/>
		<use xlink:href="#d" x="510" y="330" stroke="rgba(57, 233, 145, 1)"/>
		<use xlink:href="#c" x="510" y="390" stroke="rgba(57, 233, 145, 1)"/>
		<use xlink:href="#d" x="510" y="450" stroke="rgba(57, 233, 145, 1)"/>
		<use xlink:href="#e" x="510" y="510" stroke="rgba(57, 233, 145, 1)"/>
		<use xlink:href="#e" x="510" y="570" stroke="rgba(57, 233, 145, 1)"/>
		<use xlink:href="#c" x="570" y="30" stroke="rgba(57, 233, 145, 1)"/>
		<use xlink:href="#g" x="570" y="90" stroke="rgba(57, 233, 145, 1)"/>
		<use xlink:href="#c" x="570" y="150" stroke="rgba(57, 233, 145, 1)"/>
		<use xlink:href="#c" x="570" y="210" stroke="rgba(57, 233, 145, 1)"/>
		<use xlink:href="#f" x="570" y="270" stroke="rgba(57, 233, 145, 1)"/>
		<use xlink:href="#f" x="570" y="330" stroke="rgba(57, 233, 145, 1)"/>
		<use xlink:href="#c" x="570" y="390" stroke="rgba(57, 233, 145, 1)"/>
		<use xlink:href="#f" x="570" y="450" stroke="rgba(57, 233, 145, 1)"/>
		<use xlink:href="#e" x="570" y="510" stroke="rgba(57, 233, 145, 1)"/>
		<use xlink:href="#d" x="570" y="570" stroke="rgba(57, 233, 145, 1)"/>
		<use xlink:href="#d" x="630" y="30" stroke="rgba(57, 233, 145, 1)"/>
		<use xlink:href="#e" x="630" y="90" stroke="rgba(57, 233, 145, 1)"/>
		<use xlink:href="#g" x="630" y="150" stroke="rgba(57, 233, 145, 1)"/>
		<use xlink:href="#d" x="630" y="210" stroke="rgba(57, 233, 145, 1)"/>
		<use xlink:href="#c" x="630" y="270" stroke="rgba(57, 233, 145, 1)"/>
		<use xlink:href="#d" x="630" y="330" stroke="rgba(57, 233, 145, 1)"/>
		<use xlink:href="#d" x="630" y="390" stroke="rgba(57, 233, 145, 1)"/>
		<use xlink:href="#b" x="630" y="450" stroke="rgba(57, 233, 145, 1)" stroke-width="3"/>
		<use xlink:href="#f" x="630" y="510" stroke="rgba(57, 233, 145, 1)"/>
		<use xlink:href="#e" x="630" y="570" stroke="rgba(57, 233, 145, 1)"/>
		<use xlink:href="#c" x="690" y="30" stroke="rgba(57, 233, 145, 1)"/>
		<use xlink:href="#c" x="690" y="90" stroke="rgba(57, 233, 145, 1)"/>
		<use xlink:href="#c" x="690" y="150" stroke="rgba(57, 233, 145, 1)"/>
		<use xlink:href="#c" x="690" y="210" stroke="rgba(57, 233, 145, 1)"/>
		<use xlink:href="#c" x="690" y="270" stroke="rgba(57, 233, 145, 1)"/>
		<use xlink:href="#f" x="690" y="330" stroke="rgba(57, 233, 145, 1)"/>
		<use xlink:href="#d" x="690" y="390" stroke="rgba(57, 233, 145, 1)"/>
		<use xlink:href="#c" x="690" y="450" stroke="rgba(57, 233, 145, 1)"/>
		<use xlink:href="#f" x="690" y="510" stroke="rgba(57, 233, 145, 1)"/>
		<use xlink:href="#c" x="690" y="570" stroke="rgba(57, 233, 145, 1)"/>
	</symbol>
</svg>
