<svg width="200" height="178" viewBox="0 0 200 178" xmlns="http://www.w3.org/2000/svg" xmlns:xlink="http://www.w3.org/1999/xlink">
    <g id="Group">
        <path id="Path" fill="#39e991" stroke="none" d="M 66.281555 19.109222 C 66.281555 19.109222 64.243805 19.025894 64.187134 19.085892 C 63.926029 19.359222 63.498253 19.543655 63.056034 19.545883 C 62.526043 19.548111 62.323822 19.091446 62.323822 19.091446 L 60.819393 19.159225 C 60.322731 19.231445 60.332729 19.474777 60.310509 20.225876 C 60.300507 20.561432 60.424953 22.019196 60.732727 23.506958 C 61.231609 25.910263 61.960491 27.209137 62.122711 27.604691 C 62.191601 27.774689 62.406044 27.989136 62.56604 27.769135 C 62.89048 27.324692 63.576031 25.954712 64.614906 23.509171 C 65.119347 22.321411 65.827118 21.28476 66.548225 19.761429 C 66.831551 19.166992 66.281555 19.109222 66.281555 19.109222 Z"/>
        <path id="path1" fill="#39e991" stroke="none" d="M 63.087147 19.338104 C 63.665142 19.284164 64.162727 18.907532 64.371574 18.365891 C 64.684906 17.569229 64.04158 17.301468 63.78936 17.327011 C 63.582699 17.349243 62.901592 17.44368 62.58604 18.240341 C 62.271599 19.038116 62.766037 19.352554 63.087147 19.338104 Z"/>
        <path id="path2" fill="#39e991" stroke="none" d="M 79.677727 28.070145 C 80.171768 28.015579 80.618645 28.391129 80.675842 28.908966 C 80.73304 29.426804 80.378899 29.890823 79.88485 29.945389 C 79.390808 29.999969 78.943939 29.62442 78.886742 29.106583 C 78.829544 28.588745 79.183678 28.124725 79.677727 28.070145 Z"/>
        <path id="path3" fill="#39e991" stroke="none" d="M 52.139965 28.260193 C 52.49107 28.241318 52.796352 28.609985 52.821823 29.083649 C 52.847294 29.557312 52.583305 29.956589 52.232201 29.975479 C 51.881088 29.994354 51.575809 29.625687 51.550339 29.152023 C 51.524868 28.67836 51.788853 28.279068 52.139965 28.260193 Z"/>
        <path id="path4" fill="#39e991" stroke="none" d="M 100.55233 27.808029 C 100.762329 27.949127 101.176765 27.690247 101.176765 27.690247 C 101.176765 27.690247 102.180092 26.903595 103.022301 26.106934 C 103.382294 25.765823 103.707855 25.424713 103.954521 25.154709 C 103.588028 24.76059 103.170219 24.417511 102.712311 24.13472 C 102.464569 24.506042 102.221588 24.880524 101.983421 25.258057 C 101.484543 26.051376 101.325653 26.498032 101.024544 26.865814 C 100.723434 27.233582 100.256775 27.612473 100.55233 27.808029 Z M 100.904549 28.281357 C 100.805664 28.040237 100.251221 27.842468 99.855667 28.344681 C 99.42234 28.89357 100.081223 28.971344 100.333443 28.943573 C 100.87677 28.882462 100.991211 28.488022 100.904549 28.281357 Z M 100.903435 30.78688 C 101.384544 30.886887 101.588982 30.505768 101.604538 30.377991 C 101.620094 30.250229 101.582314 29.912445 101.051208 29.824677 C 100.657883 29.759109 100.338997 30.014664 100.354553 30.280228 C 100.363441 30.434662 100.523438 30.706879 100.903435 30.78688 Z M 99.90345 27.584686 C 100.431221 27.411362 101.348984 24.970276 101.802315 23.674728 C 101.29525 23.472778 100.766571 23.329987 100.226776 23.249176 C 100.183441 23.498062 100.135666 23.776947 100.090111 24.065842 C 100.002335 24.618057 99.992332 25.148041 99.922333 25.644714 C 99.825668 26.315811 99.680115 26.875809 99.680115 26.875809 C 99.680115 26.875809 99.183449 27.820251 99.90345 27.584686 Z M 101.235657 28.37468 C 101.437874 28.62468 101.836761 28.421356 101.836761 28.421356 C 101.836761 28.421356 102.877861 28.260239 103.852295 27.991348 C 104.365746 27.84697 104.873184 27.682022 105.37339 27.496918 C 105.177948 26.974014 104.925308 26.474319 104.620064 26.006927 C 103.730072 26.634705 102.276756 27.625809 101.634537 27.855804 C 101.536758 27.891357 101.073433 28.173584 101.235657 28.37468 Z M 102.874527 31.852432 C 102.874527 31.852432 101.973427 30.814667 101.61232 30.90799 C 101.252319 31.002441 101.505653 31.403549 101.505653 31.403549 C 101.505653 31.403549 102.284531 33.026855 102.887856 34.157959 C 103.146744 34.643509 103.39341 35.011276 103.50119 35.165726 C 103.945107 34.788025 104.335701 34.351837 104.662285 33.86908 C 103.891182 33.124634 102.874527 31.852432 102.874527 31.852432 Z M 102.214531 34.423508 C 101.827873 33.203522 101.477875 31.549103 100.941216 31.686874 C 100.630104 31.766876 100.791214 32.093536 100.845657 32.664642 C 100.932327 33.591293 100.914551 34.746841 101.008987 35.576828 C 101.061211 36.029053 101.138992 36.32016 101.176765 36.441269 C 101.687157 36.295456 102.175064 36.080109 102.626755 35.801285 C 102.666756 35.776825 102.704529 35.750168 102.74453 35.724609 L 102.721199 35.706833 C 102.721199 35.706833 102.438972 35.133499 102.214531 34.423508 Z M 99.813446 32.264648 C 99.766777 32.419083 99.741226 32.707977 99.654556 32.965744 C 99.425674 33.649078 99.072342 34.590179 98.834564 35.346832 C 98.66124 35.901276 98.554573 36.355713 98.516792 36.527939 C 99.036789 36.633499 99.605667 36.680161 100.205666 36.624603 C 100.051224 35.557953 100.468994 33.095749 100.493439 32.701309 C 100.531219 32.046875 99.924553 31.90242 99.813446 32.264648 Z M 103.172302 30.360214 C 102.416756 30.108002 102.012314 29.820221 101.788979 30.071335 C 101.564537 30.325775 101.95565 30.486877 102.548973 31.00354 C 103.00119 31.396881 103.597855 31.950211 104.120071 32.345749 C 104.571175 32.690201 104.942284 32.89798 105.157837 33.006866 C 105.4002 32.497711 105.581818 31.961807 105.698944 31.410202 C 105.568077 31.383286 105.439247 31.347275 105.313393 31.302429 C 104.674507 31.074661 103.818962 30.577988 103.172302 30.360214 Z M 105.705612 28.589127 C 105.502274 28.628006 105.267838 28.666901 105.000061 28.699127 C 103.9534 28.824677 102.450089 28.859116 102.450089 28.859116 C 102.450089 28.859116 101.672318 28.768021 101.660095 29.164673 C 101.650093 29.462448 102.1912 29.530228 102.1912 29.530228 C 102.1912 29.530228 103.862297 30.003555 105.147835 30.201324 C 105.405617 30.241333 105.645615 30.257996 105.8545 30.261337 C 105.882271 29.764664 105.8545 29.359116 105.810051 29.106903 C 105.779839 28.933411 105.74501 28.760757 105.705612 28.589127 Z M 98.554573 30.147995 C 98.766792 30.737991 99.24456 30.792435 99.533447 30.739105 C 99.823448 30.685776 100.315666 30.390213 100.196777 29.684662 C 100.077888 28.979126 99.340118 28.963562 99.340118 28.963562 C 98.881233 28.982452 98.342346 29.557999 98.554573 30.147995 Z M 98.232353 30.041336 C 98.007912 29.933563 97.859024 29.925781 97.752357 30.20578 C 97.752357 30.20578 97.595695 30.789108 98.134575 30.862442 C 98.674568 30.935776 98.455681 30.149109 98.232353 30.041336 Z M 99.243454 32.029083 C 99.065674 31.927979 98.805679 31.973541 98.541237 32.490204 C 98.193466 33.167969 97.590134 33.53241 97.080139 34.117966 C 96.59903 34.669067 96.189034 35.224609 96.002373 35.483505 C 96.305702 35.681274 96.791252 35.963501 97.406807 36.201263 C 97.631248 35.627945 98.050125 34.653503 98.57679 33.876846 C 99.135674 33.052414 99.694557 32.285751 99.243454 32.029083 Z M 98.760124 27.784683 C 99.313454 27.873581 99.276787 26.17804 99.222343 24.624725 C 99.202339 24.092499 99.190117 23.57695 99.180122 23.161407 C 98.656883 23.15593 98.136284 23.236252 97.639023 23.399185 C 97.664574 23.601395 97.702354 23.825836 97.750137 24.068069 C 97.905685 24.836945 98.261238 25.561386 98.426796 26.386932 C 98.537903 26.94136 98.499016 27.743576 98.760124 27.784683 Z M 99.715668 31.114655 C 99.567894 31.041321 99.184563 30.956879 99.122337 31.187988 C 99.012344 31.59021 99.38456 31.850204 99.38456 31.850204 C 99.38456 31.850204 99.799004 32.14798 100.028999 31.826874 C 100.258995 31.505768 99.864555 31.186874 99.715668 31.114655 Z M 98.525681 29.008011 C 98.696793 28.940231 98.855682 28.765793 98.890121 28.612457 C 98.960121 28.3069 98.724571 28.001358 98.392349 28.221359 C 98.236794 28.324677 98.179016 28.549118 98.176796 28.673569 C 98.171242 28.923569 98.393463 29.058014 98.525681 29.008011 Z M 144.645218 28.688019 C 144.645218 28.688019 144.648544 29.004669 145.054108 28.99913 C 145.459656 28.994675 145.525208 28.746902 145.512985 28.579132 C 145.500778 28.410233 145.396332 28.131348 145.088547 28.178024 C 144.780777 28.224686 144.606339 28.472458 144.645218 28.688019 Z M 144.037445 28.372467 C 143.925217 28.39357 143.60968 28.650238 143.716339 29.254669 C 143.805237 29.765778 144.134109 29.866898 144.272995 29.824677 C 144.410782 29.78244 144.625229 29.47467 144.516342 28.896896 C 144.42189 28.406906 144.110779 28.358017 144.037445 28.372467 Z M 144.920776 27.116913 C 145.026337 27.07692 145.299667 26.853592 145.528549 26.329147 C 145.71965 25.8936 145.63298 25.459152 145.707428 25.245819 C 145.854095 24.828049 146.031876 24.374725 146.141876 24.096954 C 145.887253 23.822479 145.593307 23.587326 145.269669 23.399185 C 145.177444 23.633621 145.059662 24.071396 145.074112 24.759171 C 145.09967 25.868042 145.654099 26.064713 144.846329 26.968033 C 144.764114 27.060257 144.857437 27.142471 144.920776 27.116913 Z M 144.519669 27.625809 C 144.635223 27.332474 144.58078 27.233582 144.496323 27.209137 C 144.411896 27.183578 144.137451 27.288025 144.102997 27.512466 C 144.069672 27.735809 144.067444 27.876907 144.161896 27.91246 C 144.161896 27.913574 144.404114 27.916916 144.519669 27.625809 Z M 146.458542 27.444687 C 146.204086 27.621353 146.027435 27.605804 145.760757 27.781357 C 145.56076 27.91246 145.535217 28.041351 145.567429 28.119125 C 145.575211 28.138016 145.674103 28.283569 145.934097 28.32579 C 146.307434 28.384689 146.692978 28.212463 147.306305 28.265793 C 147.480743 28.282471 147.592972 28.23024 147.665192 28.163574 C 147.621826 27.669693 147.543121 27.17955 147.429642 26.696915 C 147.310303 26.756012 147.19455 26.822052 147.082977 26.894699 C 146.815201 27.068024 146.701859 27.276917 146.458542 27.444687 Z M 145.482986 26.928024 C 145.181885 27.225815 145.13855 27.442474 145.357437 27.42247 C 145.437424 27.415802 145.778549 27.296921 146.057434 27.034698 C 146.245209 26.859146 146.376312 26.558029 146.535202 26.362488 C 146.781876 26.059158 147.015198 25.883606 147.016312 25.866928 C 147.017426 25.854706 147.075195 25.825821 147.156311 25.790268 C 147.007111 25.385056 146.810959 24.998734 146.571869 24.63916 C 146.262817 24.929916 146.052933 25.310425 145.971878 25.726929 C 145.752991 26.712479 145.78299 26.630264 145.482986 26.928024 Z M 144.704102 31.077988 C 144.571884 31.079102 144.925217 31.366867 144.650772 31.922424 C 144.386337 32.456863 143.899673 33.083527 143.60524 33.696854 C 143.478546 33.960419 143.367615 34.231262 143.27301 34.507965 C 143.660782 34.747955 144.041885 34.876846 144.369659 34.942398 C 144.393005 34.62796 144.461884 34.150177 144.654114 33.659073 C 145.107437 32.499084 145.240768 31.073547 144.704102 31.077988 Z M 145.517441 30.485779 C 145.409653 30.601334 145.705215 30.881332 145.887436 31.534653 C 146.03743 32.073532 145.945206 33.094635 146.025208 33.664627 C 146.084091 34.079071 146.161865 34.333511 146.217422 34.474625 C 146.458542 34.261292 146.715195 33.955734 146.948532 33.522415 C 146.784378 33.212799 146.669296 32.879578 146.607422 32.534637 C 146.401871 31.347992 145.887436 30.084671 145.517441 30.485779 Z M 144.688553 30.394669 C 144.971878 30.554657 145.12854 30.813553 145.349655 30.591324 C 145.569656 30.370224 145.139664 29.94133 145.010773 29.915771 C 144.884109 29.891327 144.447449 29.764664 144.414108 29.985779 C 144.414108 29.984665 144.406342 30.234665 144.688553 30.394669 Z M 145.352997 30.977997 L 145.354095 30.977997 L 145.356323 30.980209 Z"/>
        <path id="path5" fill="#39e991" stroke="none" d="M 146.069641 29.644669 C 145.895203 29.514664 145.764099 29.658005 145.71077 29.734665 C 145.612991 29.873566 146.225204 30.622437 146.225204 30.622437 C 146.225204 30.622437 146.358536 30.815765 146.472977 31.119095 C 146.605194 31.470215 146.730759 31.964645 146.912979 32.391312 C 147.00853 32.615753 147.107422 32.824631 147.19075 32.994629 C 147.352982 32.5802 147.491867 32.079086 147.586304 31.473541 C 147.382492 31.258087 147.188232 31.033798 147.004089 30.801331 C 146.676315 30.384659 146.351868 29.856888 146.069641 29.644669 Z M 145.352997 30.977997 C 145.207443 30.781326 145.134109 30.794662 145.352997 30.977997 Z"/>
        <path id="path6" fill="#39e991" stroke="none" d="M 149.818497 24.916946 C 149.80629 23.556946 149.884064 21.86586 149.819611 20.479202 C 149.665161 17.127014 148.059631 14.721481 148.059631 14.721481 C 148.059631 14.721481 148.961838 12.511505 146.658539 11.847076 C 146.370758 11.763733 145.808533 11.244858 145.464096 11.068192 C 144.968552 10.813751 144.66188 10.837082 144.08522 10.265976 C 143.160797 9.352646 142.157471 7.902664 141.251923 6.974899 C 139.969711 5.661575 138.631943 4.737137 138.631943 4.737137 C 138.631943 4.737137 138.18306 3.771591 137.438629 3.206055 C 136.716415 2.658279 135.697525 2.509384 135.697525 2.509384 C 135.697525 2.509384 128.513168 0.380524 120.07547 -0.49614 C 112.005547 -1.333908 102.651199 -0.75502 102.651199 -0.75502 C 102.651199 -0.75502 91.826859 -0.721695 84.703598 2.687164 C 80.345863 4.771591 75.498131 8.453766 75.498131 8.453766 C 75.498131 8.453766 75.379242 7.830444 74.488144 8.231552 C 74.240372 8.342667 73.865929 8.47377 73.529266 8.769333 C 72.38372 9.775986 72.369278 10.57486 72.369278 10.57486 C 72.369278 10.57486 71.293732 10.722641 70.291519 10.969299 C 69.474861 11.172638 69.111534 11.460403 67.480438 11.711517 C 65.614899 11.99707 63.408257 12.172623 61.568272 12.579285 C 59.554962 13.022614 57.92942 13.564835 57.232761 13.851501 L 57.227207 13.853714 C 57.17165 13.877045 57.120541 13.898163 57.077206 13.918167 L 57.07832 13.918167 C 57.02911 13.938828 56.980907 13.961823 56.933876 13.987045 C 56.911652 13.999268 56.947208 14.084824 56.920544 14.094833 C 56.103886 14.401489 55.405003 14.527039 54.276123 15.412598 C 53.962795 15.658142 53.552799 15.92926 53.287247 16.197021 C 52.739471 16.753693 52.418365 17.315903 52.097256 17.742569 C 51.781704 18.161453 51.565041 18.442566 51.577263 18.442566 C 51.591373 18.432007 51.604069 18.419678 51.61504 18.405899 C 51.020599 19.051437 51.499485 20.559204 51.499485 20.559204 C 51.499485 20.559204 51.437263 20.665878 51.345043 20.813644 L 51.343929 20.815872 L 51.242821 20.976974 L 51.1106 21.181427 C 50.942825 21.435867 50.751717 21.665863 50.732826 21.899185 L 50.46505 25.294708 C 50.46505 25.294708 50.447273 25.54361 50.349495 25.808044 C 50.207275 26.191376 49.973946 26.445816 50.002834 26.930252 C 50.016167 27.152466 50.05061 27.929138 50.181721 28.691345 C 50.318386 29.481339 50.55283 30.254669 50.55283 30.254669 C 50.55283 30.254669 50.608383 30.566879 50.663937 30.921326 C 50.727272 31.323547 50.608383 31.494659 50.681717 31.8302 C 50.801716 32.392426 51.19949 32.936859 51.79615 33.350189 C 52.60392 33.910187 54.742786 33.93129 54.742786 33.93129 C 54.742786 33.93129 56.29166 37.989029 62.439373 38.867905 C 63.620476 39.03569 65.156013 38.787918 66.052673 38.597916 C 69.831528 37.80014 71.161507 35.577942 71.161507 35.577942 C 71.161507 35.577942 72.86483 35.721268 74.849251 35.739059 C 77.719223 35.764603 81.555855 35.676834 84.843597 35.767944 C 86.225807 35.806839 86.241364 35.362396 87.036903 35.290161 C 88.45134 35.162399 89.974655 35.33017 89.974655 35.33017 C 89.974655 35.33017 91.685753 37.480148 93.77906 38.273483 C 96.266815 39.216797 99.204567 38.830139 99.204567 38.830139 C 99.204567 38.830139 102.17231 38.984573 104.135628 37.871262 C 106.250046 36.672379 107.497818 33.959076 107.497818 33.959076 C 107.497818 33.959076 123.505432 33.614639 131.908676 33.560196 C 134.996429 33.539078 135.909744 33.733521 135.909744 33.733521 C 135.909744 33.733521 136.903076 37.107925 140.541931 37.436813 C 142.428574 37.606812 145.347443 37.697922 147.02742 36.173492 C 148.735184 34.621292 148.935181 30.266891 148.935181 30.266891 C 148.935181 30.266891 149.652954 28.655792 149.977386 26.340256 C 150.077393 25.602493 149.824066 25.495819 149.818497 24.916946 Z M 51.668373 20.658096 L 51.712814 20.583649 L 51.68726 20.50032 C 51.563931 20.110321 51.336155 18.998108 51.758373 18.53923 L 51.749481 18.531448 C 51.77615 18.490341 51.911705 18.313675 52.052814 18.1259 L 52.252811 17.86145 C 52.347256 17.734787 52.441696 17.599228 52.541698 17.454788 C 52.779472 17.109238 53.048359 16.719238 53.426132 16.335907 C 53.599464 16.16037 53.846127 15.979248 54.085014 15.802582 C 54.195015 15.721481 54.297234 15.644806 54.395012 15.568146 C 55.286114 14.869263 55.891663 14.662598 56.531658 14.442596 C 56.679432 14.391495 56.832764 14.339264 56.988319 14.28038 C 57.060417 14.254379 57.11161 14.189835 57.120541 14.113708 L 57.199429 14.079269 C 57.234982 14.297043 56.921654 14.578156 56.492767 14.961487 C 56.400547 15.043701 56.304993 15.129257 56.210548 15.217041 L 56.199436 15.227036 C 55.941662 15.459259 54.619453 16.704803 53.907238 18.437012 C 53.563908 19.271439 53.361691 20.382538 53.317245 20.790314 C 53.286133 21.080307 53.191692 21.275864 53.028358 21.385864 C 52.915073 21.457977 52.782566 21.494019 52.648361 21.489197 C 52.440586 21.489197 52.212811 21.426971 52.001701 21.370316 C 51.920692 21.347763 51.839191 21.327011 51.757259 21.30809 C 51.528374 21.256973 51.510597 21.085861 51.498375 20.961426 L 51.496151 20.941422 C 51.596149 20.781433 51.663929 20.665878 51.668373 20.658096 Z M 53.935017 30.970215 C 53.838352 31.266876 53.585018 31.395767 53.18058 31.42688 C 52.918358 31.447983 52.552807 31.350204 52.118366 31.342438 C 51.295044 31.32576 51.05949 30.901321 50.862823 30.301331 C 50.64505 29.635788 50.512829 28.750229 50.458385 27.872467 C 50.370609 26.448044 52.499474 26.551361 53.120579 26.650253 C 53.266132 26.673584 53.261688 26.660248 53.305023 26.823593 C 53.385021 27.136917 53.421688 27.930237 53.606133 28.708008 C 53.739464 29.268005 54.185013 30.211334 53.935017 30.970215 Z M 62.233822 31.465759 C 61.606052 31.480209 59.190521 31.510208 57.65387 31.240204 C 57.274498 31.177704 56.909668 31.046692 56.577213 30.853546 C 55.841663 30.411331 55.469444 29.471344 55.178337 28.651352 C 54.870564 27.779129 54.789452 27.49913 54.669453 27.039139 C 54.549454 26.578033 54.698341 26.59137 54.95723 26.593597 C 55.537224 26.599152 59.248299 26.565811 59.857178 27.134689 C 60.429398 27.66803 60.731617 28.358017 61.092724 28.950226 C 61.726048 29.991333 62.173824 30.876877 62.320488 31.252441 C 62.389374 31.425766 62.40271 31.463547 62.233822 31.465759 Z M 63.024925 28.666901 C 62.90826 28.835785 62.788261 29.021347 62.718262 29.079117 C 62.678261 29.111343 62.616039 29.152451 62.213821 28.684677 C 60.458286 26.643585 59.638294 21.994751 59.654957 20.408096 C 59.669403 19.070328 59.850513 19.105881 60.240509 18.691452 C 60.51273 18.401443 61.264942 18.335892 61.864937 18.279221 C 62.253822 18.243683 62.446041 18.242569 62.446041 18.242569 C 62.446041 18.242569 62.619373 17.590347 63.426033 17.273682 C 64.110474 17.005905 64.419357 17.28479 64.6138 17.682571 C 64.668243 17.794785 64.682686 17.961456 64.751572 18.025894 C 64.927132 18.192566 65.161568 18.142563 65.161568 18.142563 C 65.161568 18.142563 67.238213 18.259232 67.36599 18.28479 C 68.159317 18.437012 67.914879 19.194778 67.837097 19.322556 C 67.760437 19.448105 67.252663 20.335876 67.252663 20.335876 C 67.252663 20.335876 65.967117 22.880295 64.787132 25.238052 C 64.481575 25.849152 64.218246 26.480255 63.936028 27.01358 C 63.623806 27.605804 63.272701 28.309128 63.024925 28.666901 Z M 74.981468 26.605804 C 74.949249 26.672485 74.653694 27.526917 74.178146 28.502457 C 73.737038 29.406891 73.158157 30.416885 72.031502 30.972427 C 71.598175 31.18576 70.788177 31.227982 70.132629 31.262436 C 67.748215 31.387985 64.937126 31.414658 64.429352 31.451324 C 64.398247 31.453537 64.083801 31.4991 64.030472 31.365768 C 64.000473 31.290207 64.073807 30.153549 65.086014 28.032471 C 65.347122 27.482468 65.641563 27.07692 66.448227 26.913589 C 66.943771 26.812469 70.460411 26.562485 71.750397 26.50914 C 73.630371 26.43248 74.791473 26.453598 74.791473 26.453598 C 74.791473 26.453598 75.089249 26.389145 74.981468 26.605804 Z M 69.232643 25.19249 L 69.303749 22.176971 L 78.949211 22.079193 L 78.883659 25.086945 L 69.232643 25.19249 Z M 82.916946 31.236877 C 81.222527 31.326874 79.132538 31.310211 77.932556 31.375763 C 75.412582 31.510208 76.36924 29.846893 76.36924 29.846893 C 76.36924 29.846893 76.704788 29.204681 77.133675 28.535797 C 77.537331 27.905289 77.960114 27.287216 78.401436 26.68248 C 78.538101 26.503586 78.49144 26.495819 78.939209 26.479141 C 79.659203 26.453598 81.149185 26.433594 82.25029 26.955811 C 83.731384 27.65802 84.853592 28.823563 85.539146 29.899109 C 86.173584 30.893555 84.780266 31.139099 82.916946 31.236877 Z M 106.514488 30.230225 L 106.514488 30.234665 C 106.513382 30.300995 106.511154 30.367294 106.507828 30.433548 L 106.507828 30.435776 L 106.506714 30.43689 C 106.459869 31.470261 106.199196 32.482681 105.741165 33.410187 L 105.734497 33.425751 C 105.683388 33.525742 105.631165 33.624634 105.577835 33.721298 L 105.564499 33.744629 C 105.506302 33.846802 105.446297 33.947922 105.384499 34.047958 C 105.324501 34.141296 105.264503 34.234619 105.201172 34.325729 C 103.974518 36.090164 102.028976 37.201263 99.969002 37.27681 C 96.083488 37.421265 93.775726 33.87352 93.775726 33.87352 C 93.775726 33.87352 94.003502 33.850189 94.239059 33.602402 C 94.455727 34.012405 94.7435 34.411285 95.119049 34.781281 C 95.352379 34.504623 95.791267 34.073517 96.602371 33.505753 C 97.304581 33.013535 98.147903 32.445755 98.403458 32.076874 C 98.514572 31.91687 98.484573 31.765762 98.370125 31.667984 C 98.069023 31.406876 97.745689 31.73465 96.680145 32.261307 C 96.446815 32.376862 95.734596 32.644638 95.501266 32.755753 C 95.116829 32.937973 94.756828 33.116852 94.474609 33.259079 C 94.569054 33.073532 94.650162 32.832413 94.700165 32.517975 C 94.716827 32.415756 94.735718 32.23465 94.757942 31.993546 C 95.405571 31.815704 96.051872 31.633118 96.696808 31.44577 C 97.363472 31.2491 97.811241 31.326874 97.851242 30.983551 C 97.906799 30.528 95.544601 30.663544 94.877937 30.71022 C 94.902382 30.465775 94.931274 30.20578 94.961273 29.933563 C 95.25016 29.980225 95.654602 30.036896 96.063484 30.072449 C 96.964584 30.149109 97.552361 30.537994 97.556801 29.993561 C 97.560135 29.541336 95.617935 28.8069 95.131271 28.62912 C 95.167938 28.376907 95.207939 28.123581 95.25238 27.869125 C 95.504601 28.010239 96.096817 28.343582 96.612366 28.655792 C 97.126808 28.966904 97.469025 29.395782 97.626801 29.073563 C 97.843468 28.633575 96.953476 28.070236 96.254593 27.355804 C 95.99012 27.078033 95.752403 26.775955 95.544601 26.453598 C 95.643494 26.048035 95.730156 25.718048 95.815712 25.419159 C 96.175705 25.859161 96.894585 26.756927 97.406807 27.543579 C 97.684578 27.970245 97.843468 28.383575 98.0868 28.283569 C 98.599014 28.072464 97.689026 26.181366 97.067917 24.762497 C 96.93631 24.458725 96.820595 24.148315 96.721252 23.832504 C 96.553825 23.938736 96.39315 24.055252 96.24015 24.181396 C 96.339035 23.935837 96.451256 23.671402 96.586815 23.363617 L 96.602371 23.330292 L 96.696808 23.116959 C 96.760628 23.071396 96.830589 23.03511 96.904587 23.009186 L 96.909035 23.008072 C 96.932365 22.996964 96.95903 22.986954 96.986809 22.975845 L 96.995697 22.972519 C 97.023476 22.960297 97.053474 22.949188 97.083473 22.938065 L 97.091248 22.934738 L 97.189026 22.899185 L 97.194588 22.896957 C 97.235077 22.882202 97.275826 22.868118 97.316803 22.854736 C 97.35347 22.841415 97.390137 22.830292 97.429024 22.818069 L 97.447914 22.811401 L 97.569023 22.773636 L 97.572357 22.772522 C 97.962776 22.653763 98.36338 22.571548 98.769012 22.526962 C 98.900124 22.513626 99.033455 22.505859 99.165672 22.503632 L 99.322342 22.501404 L 99.33123 22.501404 C 99.434563 22.502518 99.536781 22.504745 99.63678 22.5103 L 99.642342 22.5103 C 99.743446 22.51474 99.841225 22.522522 99.936775 22.530304 L 99.945663 22.531403 C 100.039001 22.539185 100.130112 22.549194 100.215668 22.558075 L 100.226776 22.559189 C 100.730103 22.6203 101.086769 22.704742 101.086769 22.704742 C 101.086769 22.704742 101.465652 22.794739 102.022308 23.040298 L 102.023422 23.041397 C 102.09787 23.073624 102.176758 23.110291 102.25676 23.149185 L 102.267868 23.154739 C 103.128967 23.570282 104.296738 24.322495 105.19117 25.603607 L 105.192284 25.604706 C 105.718292 26.3629 106.092926 27.215546 106.295601 28.115799 L 106.297821 28.123581 C 106.316719 28.201355 106.332268 28.281357 106.348938 28.361343 L 106.364494 28.440231 C 106.477989 29.029877 106.528275 29.629929 106.514488 30.230225 Z M 106.638939 10.452637 C 106.638939 10.452637 102.332306 10.095978 96.775696 10.12265 C 92.452408 10.144867 87.252464 10.129318 82.926949 10.232635 C 77.383667 10.363754 73.190376 10.615967 73.190376 10.615967 C 73.190376 10.615967 77.193672 7.723785 80.755859 5.51825 C 83.162498 4.027145 85.679146 2.422714 88.976891 1.5905 C 89.990211 1.334946 91.217979 1.144958 92.360184 1.048294 C 94.686836 0.85051 97.251251 0.670517 99.966782 0.639404 C 105.155617 0.580521 110.296677 0.954956 110.924446 1.013855 C 111.902214 1.10495 111.923325 1.343842 111.80555 1.582733 L 111.656662 1.882721 L 106.638939 10.452637 Z M 117.705482 10.682632 C 118.753258 10.609299 119.339912 10.295975 119.287697 9.263763 C 119.235481 8.229324 119.283257 7.380447 117.016609 6.972672 C 115.031075 6.616013 114.297745 7.047119 113.836639 7.444885 C 113.524422 7.71489 113.212196 7.960449 113.205536 7.967117 C 112.88443 8.232666 112.271095 7.133789 112.091103 6.770462 C 111.909996 6.408234 111.766663 6.384903 111.766663 6.384903 C 111.766663 6.384903 113.636642 3.16716 115.433289 1.85495 C 117.852158 0.089417 121.254341 0.709412 121.254341 0.709412 C 121.254341 0.709412 122.438774 2.577164 123.099884 4.751587 C 123.884315 7.328232 124.166534 10.28154 124.166534 10.28154 C 124.166534 10.28154 116.657715 10.755966 117.705482 10.682632 Z M 127.619835 9.871536 C 127.619835 9.871536 126.94873 6.83934 125.94207 4.338257 C 125.163193 2.400497 123.989876 0.849396 123.989876 0.849396 C 123.989876 0.849396 126.054291 1.043854 128.678711 1.737167 C 131.308685 2.43161 134.498657 3.626038 134.83754 4.194931 C 136.466415 6.938232 136.560852 9.040436 136.560852 9.040436 L 127.619835 9.871536 Z M 145.698547 35.590164 C 145.468521 35.650574 145.230453 35.674576 144.992996 35.661285 L 144.991882 35.661285 C 144.240784 35.626831 143.453018 35.2435 142.765244 34.544617 L 142.76413 34.543518 C 142.424789 34.193741 142.130981 33.80249 141.889694 33.379074 L 141.88858 33.376862 C 141.844864 33.300079 141.802261 33.222656 141.760803 33.144638 L 141.754135 33.132416 C 141.712585 33.05246 141.672577 32.971695 141.63414 32.890198 L 141.628586 32.879074 C 141.588776 32.794113 141.550247 32.708557 141.513031 32.622421 L 141.510803 32.616867 C 141.348984 32.237808 141.216034 31.847061 141.113037 31.447983 L 141.111923 31.442429 C 140.963638 30.861221 140.865875 30.26828 140.819702 29.670227 C 140.797485 29.390228 140.784149 29.116898 140.777481 28.848007 L 140.776367 28.835785 C 140.746368 27.554688 140.881927 26.400253 141.156372 25.435822 L 141.157471 25.433594 C 141.665253 23.655838 142.648575 22.52919 143.937454 22.44696 L 143.954117 22.445847 C 144.035233 22.441406 144.117447 22.439178 144.201889 22.443634 C 144.201889 22.443634 146.459656 22.248077 147.629623 25.825821 L 147.640747 25.86026 L 147.696304 26.036926 L 147.708527 26.076935 L 147.76297 26.263596 L 147.771851 26.295822 C 147.791855 26.365814 147.809631 26.438034 147.828522 26.510254 L 147.83075 26.51915 C 147.852966 26.603592 147.874069 26.689148 147.894073 26.776917 C 148.940735 31.345764 147.667419 35.065735 145.698547 35.590164 Z"/>
        <path id="path7" fill="#39e991" stroke="none" d="M 147.410751 29.019119 C 147.202972 28.963562 146.948532 28.941345 146.741867 28.880234 C 146.19632 28.716904 145.829651 28.579132 145.752991 28.850235 C 145.662994 29.169128 146.030762 29.21579 146.356308 29.516891 C 146.597427 29.739105 146.86853 30.095779 147.107422 30.309113 C 147.366302 30.539108 147.586304 30.665771 147.677414 30.713547 C 147.717407 30.236893 147.73407 29.706894 147.720749 29.115784 C 147.618454 29.080307 147.515076 29.048065 147.410751 29.019119 Z M 145.768539 33.349075 C 145.944092 32.016876 145.569656 31.269104 145.354095 30.977997 C 144.9841 30.674667 145.208557 31.437988 145.196335 31.381317 C 145.278549 31.745758 145.384094 32.412415 145.00856 33.340195 C 144.800446 33.867233 144.736038 34.440079 144.821884 35.000183 C 145.086334 35.014618 145.267426 34.989059 145.312988 34.976837 C 145.376328 34.957947 145.582993 34.907959 145.852982 34.744614 C 145.798538 34.371292 145.718552 33.723526 145.768539 33.349075 Z M 142.38858 26.455811 C 142.555237 26.639145 142.724136 26.761368 142.818573 26.858032 C 143.280792 27.338028 143.496353 27.876907 143.496353 27.876907 C 143.496353 27.876907 143.539673 28.060242 143.61412 28.055801 C 143.689667 28.051361 143.728561 27.644684 143.720779 27.523575 C 143.683853 27.199341 143.576126 26.887161 143.405228 26.609146 C 143.065231 26.093597 142.467468 25.592484 142.157471 25.019165 C 142.042053 24.803482 141.958603 24.572189 141.909698 24.332504 C 141.757477 24.565826 141.61525 24.836945 141.490814 25.15361 C 141.526367 25.268051 141.583038 25.409149 141.671906 25.56694 C 141.836365 25.856934 142.154144 26.198044 142.38858 26.455811 Z M 143.918564 27.368027 C 144.089676 27.411362 144.240784 26.654709 144.210785 26.336929 C 144.16301 25.846924 143.158569 23.984726 143.198563 23.176956 C 143.020798 23.256958 142.831909 23.368073 142.640793 23.518066 C 142.657455 23.88028 142.755249 24.988052 143.377457 25.670273 C 144.128555 26.493591 143.746338 27.323578 143.918564 27.368027 Z M 144.410782 31.456879 C 144.424118 31.39798 144.403 30.901321 144.209671 30.85022 C 144.139664 30.831329 144.166336 30.930222 144.101898 31.034653 C 144.006348 31.189102 144.001892 31.269104 143.735229 31.514648 C 143.51413 31.717987 142.476364 32.349091 141.997467 33.172409 C 142.234131 33.567963 142.496353 33.880188 142.766342 34.124634 C 142.909683 33.886856 143.119675 33.534637 143.310791 33.199081 C 143.703003 32.513535 144.295227 31.977982 144.410782 31.456879 Z M 144.485229 26.224701 C 144.525223 26.843582 144.230774 27.132477 144.522995 26.912476 C 144.696335 26.782471 144.894104 26.056931 144.721878 25.213608 C 144.546341 24.354721 144.347443 23.414734 144.513 23.081406 C 144.336899 23.029037 144.155319 22.997345 143.971893 22.986954 L 143.947449 22.988068 C 143.857452 23.420288 143.823013 24.063614 144.108551 24.814713 C 144.308548 25.343597 144.459671 25.842484 144.485229 26.224701 Z M 143.91301 30.85466 C 144.026337 30.735779 143.967453 30.574661 143.926346 30.496887 C 143.77301 30.204666 143.330795 30.454666 143.12413 30.552444 C 142.428574 30.881332 141.849686 30.751328 141.268585 31.290207 C 141.354141 31.65799 141.45636 31.990204 141.569702 32.289093 C 141.72525 32.233536 141.913025 32.159088 142.111908 32.06131 C 143.12413 31.564651 143.537445 31.254654 143.91301 30.85466 Z M 143.368561 29.977997 C 143.908554 29.790222 143.426346 29.346893 143.387451 29.323563 C 142.976349 29.084671 142.777466 29.196899 141.915253 28.880234 C 141.61795 28.763031 141.29332 28.733337 140.979706 28.794678 C 140.98851 29.236603 141.018539 29.677856 141.069702 30.116882 C 141.573029 30.122437 142.9319 30.129105 143.368561 29.977997 Z M 142.555237 28.39357 C 142.955246 28.553574 143.286346 28.700241 143.395233 28.602463 C 143.501892 28.506912 143.318573 28.221359 143.227448 28.092468 C 142.890793 27.615799 142.093033 27.288025 141.650803 26.869141 C 141.460846 26.694916 141.298279 26.493011 141.168594 26.270264 C 141.081741 26.711075 141.024933 27.157288 140.998596 27.605804 C 141.140808 27.712463 141.329697 27.843582 141.548584 27.970245 C 141.860809 28.150238 142.231918 28.264679 142.555237 28.39357 Z"/>
    </g>
    <path id="path8" fill="#ffffff" stroke="none" d="M 0.002 59.050003 L 20.198 59.050003 L 20.198 100.870003 L 16.287001 100.870003 L 16.287001 144.044006 L 46.373001 144.044006 L 46.373001 153.074005 L 40.401001 153.074005 L 40.401001 155.136002 L 46.373001 155.136002 L 46.373001 160.969009 L 26.882999 160.969009 L 26.882999 159.404007 L 0.14 159.404007 C 0.059354 158.553802 0.010986 157.700867 -0.005 156.847 L -0.005 134.087006 L 5.129 134.087006 L 5.129 131.029007 L 0.002 131.029007 L 0.002 59.050003 Z M 17.642 138.705002 L 18.85 138.705002 C 19.417999 139.513 19.746 139.914001 19.84 139.914001 C 20.226999 139.113007 20.51 138.705002 20.700001 138.705002 L 21.764 138.705002 C 21.618 139.084 21.174 139.775009 20.416 140.77301 C 20.649 141.247009 21.145 142.048004 21.909 143.19101 L 20.700001 143.19101 C 20.125 142.667007 19.84 142.194 19.84 141.764008 C 19.746 141.764008 19.346001 142.237 18.632 143.19101 L 17.642 143.19101 L 17.642 142.973007 L 18.989 140.912003 L 18.989 140.766006 Z M 46.373001 153.074997 L 53.772999 153.074997 L 53.772999 155.13501 L 46.373001 155.13501 L 46.373001 153.074997 Z M 59.388 59.050003 L 78.593002 59.050003 C 78.782997 59.100998 78.876999 59.218002 78.876999 59.406998 L 78.876999 108.910004 C 78.876999 109.143005 78.782997 109.267006 78.586998 109.267006 L 76.314003 109.267006 L 76.314003 160.613007 C 76.314003 160.852997 76.196999 160.977005 75.957001 160.977005 L 59.388 160.977005 C 59.147999 160.977005 59.030998 160.852997 59.030998 160.613007 L 59.030998 108.058006 L 53.910999 108.058006 C 53.678001 108.058006 53.554001 107.934006 53.554001 107.694 L 53.554001 105.494003 C 53.605 105.254005 53.722 105.137001 53.917999 105.137001 L 59.030998 105.137001 L 59.030998 59.400002 C 59.082001 59.167 59.199001 59.050003 59.395 59.050003 Z M 59.168999 105.137001 L 59.168999 108.051003 L 68.987 108.051003 L 68.987 105.137001 L 59.176998 105.137001 Z M 87.195 59.123001 L 138.335999 59.123001 L 138.335999 76.049004 L 107.471001 76.049004 L 107.471001 100.229004 L 134.069 100.229004 L 134.425003 100.447006 L 134.207001 100.804001 C 134.112 104.212006 134.061005 106.208 134.061005 106.776001 L 131.147995 106.776001 L 131.147995 106.922005 C 131.147995 108.152 131.031998 110.782005 130.798004 114.809006 L 133.492996 114.809006 C 133.492996 116.753998 133.332993 117.722992 132.998001 117.722992 L 114.302002 117.722992 L 114.302002 121.218002 L 104.557999 121.218002 L 104.557999 123.061005 L 107.471001 123.061005 L 107.471001 131.95401 L 117.216003 131.95401 L 117.216003 133.520004 L 107.477997 133.520004 L 107.477997 158.201996 L 107.332001 159.410995 L 96.807999 159.410995 L 96.807999 160.969009 L 87.557999 160.969009 C 87.325996 160.969009 87.202003 160.852997 87.202003 160.619003 L 87.202003 158.056 L 87.420998 156.352005 L 92.394997 156.352005 L 92.394997 153.78801 L 87.202003 153.78801 L 87.202003 143.971008 L 89.620003 143.971008 L 89.620003 107.985001 L 93.75 107.985001 L 93.75 105.421005 L 87.202003 105.421005 L 87.202003 59.123001 Z M 85.489998 126.688004 L 86.204002 126.688004 C 86.436996 126.688004 86.560997 126.804993 86.560997 127.044998 L 86.560997 129.389999 C 86.605003 130.104004 86.772003 130.460007 87.056 130.460007 L 87.769997 130.460007 C 87.916 130.460007 88.075996 130.292999 88.264999 129.958008 L 88.264999 127.044998 C 88.308998 126.804993 88.432999 126.688004 88.622002 126.688004 L 89.263 126.688004 L 89.263 129.964996 C 89.263 130.955002 88.570999 131.451004 87.195 131.451004 C 86.058998 131.305008 85.489998 130.811005 85.489998 129.958008 L 85.489998 126.688004 Z M 107.82 128.391998 L 107.966003 128.391998 C 109.764999 129.201004 110.806 129.602005 111.098 129.602005 L 111.098 130.598999 L 107.966003 131.669006 L 107.82 131.669006 L 107.82 131.094009 C 107.82 130.949005 108.512001 130.621002 109.889 130.104004 L 109.889 129.958008 C 109.649002 129.958008 108.963997 129.725006 107.82 129.244003 L 107.82 128.391998 Z M 98.010002 131.95401 L 98.010002 133.512009 L 107.332001 133.512009 L 107.332001 131.95401 L 98.010002 131.95401 Z M 86.910004 132.660004 L 87.056 132.660004 C 88.293999 132.660004 88.905998 133.184006 88.905998 134.225998 L 87.769997 134.225998 C 87.769997 133.753006 87.478996 133.512009 86.910004 133.512009 C 86.721001 133.512009 86.531998 133.680008 86.343002 134.014999 C 88.054001 134.678009 88.905998 135.151001 88.905998 135.434998 C 88.905998 135.529999 88.978996 135.697006 89.125 135.936996 C 89.125 136.790009 88.432999 137.307007 87.056 137.497009 C 85.775002 137.307007 85.134003 136.71701 85.134003 135.719009 L 86.343002 135.719009 C 86.343002 136.192001 86.466003 136.432999 86.707001 136.432999 L 87.552002 136.432999 C 87.792 136.432999 87.916 136.31601 87.916 136.076004 L 87.916 135.719009 C 86.204002 135.296997 85.351997 134.845001 85.351997 134.372009 L 85.351997 133.731003 C 85.731003 133.016998 86.248001 132.660995 86.911003 132.660995 Z M 85.134003 138.632004 L 85.702003 138.632004 C 86.372002 138.632004 86.816002 139.112 87.056 140.059998 L 88.265999 138.639999 L 89.116997 138.639999 L 89.116997 138.990005 C 88.317001 140.082001 87.907997 140.839005 87.907997 141.268997 C 88.054001 141.268997 88.498001 141.888 89.263 143.119003 L 89.263 143.337006 L 88.264999 143.337006 C 88.170998 143.337006 87.769997 142.85701 87.056 141.910004 C 86.625999 142.762009 86.277 143.235001 85.986 143.330002 L 84.996002 143.330002 C 85.795998 141.910004 86.320999 141.145004 86.560997 141.057007 C 85.613998 139.673996 85.134003 138.873001 85.134003 138.639999 Z M 140.259003 59.050003 L 200.001999 59.050003 L 200.001999 76.050003 L 180.229996 76.050003 L 180.229996 146.535004 L 189.188004 146.535004 L 189.188004 148.596008 L 180.229996 148.596008 L 180.229996 156.346008 L 174.891006 156.346008 L 174.891006 159.048004 L 178.664001 159.048004 L 178.664001 160.970001 L 160.529007 160.970001 C 160.289001 160.970001 160.171997 160.854004 160.171997 160.613998 L 160.171997 76.056 L 140.259995 76.056 L 140.259995 59.042999 Z M 173.186005 146.533997 L 173.186005 148.595001 L 180.082993 148.595001 L 180.082993 146.535004 L 173.186005 146.535004 Z"/>
    <path id="path9" fill="#39e991" stroke="none" d="M 22.795 171.234009 C 22.795 171.184006 22.834999 171.141998 22.886999 171.141998 L 24.063999 171.141998 C 24.115 171.141998 24.156 171.182999 24.156 171.234009 L 24.156 177.806 C 24.156 177.85701 24.115999 177.89801 24.063999 177.89801 L 22.927999 177.89801 C 22.886999 177.89801 22.846001 177.878006 22.836 177.847 L 21.341 174.479004 L 21.341 177.806 C 21.341 177.85701 21.301001 177.89801 21.249001 177.89801 L 20.082001 177.89801 C 20.031 177.89801 20 177.858002 20 177.806 L 20 171.234009 C 20 171.184006 20.030001 171.141998 20.082001 171.141998 L 21.290001 171.141998 C 21.33 171.141998 21.351 171.171997 21.362 171.193008 L 22.795 174.5 L 22.795 171.234009 Z M 23.532 177.283997 L 23.532 171.755997 C 23.532 171.684998 23.399 171.664001 23.399 171.755997 L 23.399 177.018005 L 20.726999 171.736008 C 20.697001 171.695007 20.614 171.695007 20.614 171.755997 L 20.614 177.274002 C 20.614 177.365997 20.737 177.365997 20.737 177.274002 L 20.737 172.02301 L 23.399 177.294006 C 23.438999 177.365997 23.532 177.345001 23.532 177.283997 Z M 30.761999 177.89801 C 30.712 177.89801 30.68 177.858002 30.68 177.806 L 30.68 171.234009 C 30.68 171.184006 30.711 171.141998 30.761999 171.141998 L 34.242001 171.141998 C 34.293999 171.141998 34.334999 171.182999 34.334999 171.234009 L 34.334999 172.330002 C 34.334999 172.380005 34.293999 172.421997 34.243 172.421997 L 32.032001 172.421997 L 32.032001 173.814011 L 33.751999 173.814011 C 33.801998 173.814011 33.833 173.854004 33.833 173.906006 L 33.833 175.022003 C 33.833 175.072006 33.803001 175.113998 33.750999 175.113998 L 32.030998 175.113998 L 32.030998 176.619003 L 34.243 176.619003 C 34.292999 176.619003 34.334999 176.658997 34.334999 176.710999 L 34.334999 177.806 C 34.334999 177.85701 34.293999 177.89801 34.243 177.89801 L 30.763 177.89801 Z M 31.274 171.78801 L 31.274 177.233002 C 31.274 177.294006 31.315001 177.315002 31.356001 177.315002 L 33.709999 177.315002 C 33.801998 177.315002 33.782001 177.192001 33.709999 177.192001 L 31.407 177.192001 L 31.407 174.520004 L 33.291 174.520004 C 33.352001 174.520004 33.352001 174.376999 33.291 174.376999 L 31.407 174.376999 L 31.407 171.837997 L 33.709999 171.837997 C 33.782001 171.837997 33.801998 171.705002 33.709999 171.705002 L 31.356001 171.705002 C 31.334087 171.704453 31.312906 171.712906 31.297405 171.728409 C 31.281906 171.743912 31.273445 171.765091 31.274 171.787003 Z M 47.931999 171.141998 C 47.993999 171.141998 48.035 171.193008 48.014 171.255005 L 46.254002 177.837006 C 46.243999 177.876999 46.202 177.89801 46.160999 177.89801 L 45.035 177.89801 C 44.994999 177.89801 44.964001 177.878006 44.943001 177.837006 L 44.247002 175.247009 L 43.306 177.847 C 43.296001 177.876999 43.275002 177.89801 43.234001 177.89801 L 42.148998 177.89801 C 42.108002 177.89801 42.077 177.878006 42.067001 177.837006 L 40.317001 171.24501 C 40.306999 171.193008 40.337002 171.141998 40.409 171.141998 L 41.585999 171.141998 C 41.616001 171.141998 41.646999 171.171997 41.658001 171.20401 L 42.793999 175.544006 L 43.644001 172.973999 L 43.172001 171.253998 C 43.152 171.194 43.202999 171.141998 43.254002 171.141998 L 44.523998 171.141998 C 44.563999 171.141998 44.584999 171.152008 44.605 171.20401 L 45.547001 175.380005 L 46.673 171.20401 C 46.684681 171.168228 46.717392 171.143494 46.755001 171.141998 L 47.931999 171.141998 Z M 44.328999 173.076996 L 42.783001 177.192001 L 41.125 171.736008 C 41.105 171.664001 40.981998 171.695007 41.001999 171.766006 L 42.660999 177.233002 C 42.691002 177.376007 42.865002 177.365997 42.917 177.233002 L 44.380001 173.281998 L 45.455002 177.222 C 45.495998 177.376007 45.68 177.376007 45.710999 177.23201 L 47.338001 171.766998 C 47.368999 171.695007 47.236 171.654007 47.216 171.736008 L 45.598 177.192001 L 44.104 171.736008 C 44.094002 171.664001 43.960999 171.684998 43.991001 171.766006 Z M 63.918999 171.20401 C 63.929001 171.173004 63.949001 171.141998 63.990002 171.141998 L 65.260002 171.141998 C 65.300003 171.141998 65.320999 171.171997 65.331001 171.20401 L 67.101997 177.785004 C 67.112 177.847 67.071999 177.89801 67.010002 177.89801 L 65.843002 177.89801 C 65.813004 177.89801 65.781998 177.878006 65.771004 177.837006 L 65.372002 176.404007 L 63.877998 176.404007 L 63.487999 177.837006 C 63.478001 177.876999 63.458 177.89801 63.417999 177.89801 L 62.240002 177.89801 C 62.179001 177.89801 62.138 177.847 62.147999 177.785004 Z M 64.205002 175.134003 L 65.055 175.134003 L 64.614998 173.589005 Z M 65.781998 175.738007 L 66.251999 177.274002 C 66.273003 177.335007 66.386002 177.324005 66.355003 177.242996 L 64.717003 171.796997 C 64.686996 171.664001 64.512001 171.654007 64.482002 171.796997 L 62.895 177.242996 C 62.865002 177.315002 62.977001 177.345001 63.007999 177.283005 L 63.458 175.738007 L 65.781998 175.738007 Z M 63.488998 175.604996 L 64.605003 171.837997 L 65.740997 175.604996 L 63.488998 175.604996 Z M 75.929001 171.235001 C 75.929001 171.182999 75.971001 171.141998 76.022003 171.141998 L 77.198997 171.141998 C 77.25 171.141998 77.291 171.182999 77.291 171.234009 L 77.291 177.806 C 77.291 177.85701 77.250999 177.89801 77.198997 177.89801 L 76.063004 177.89801 C 76.022003 177.89801 75.981003 177.878006 75.971001 177.847 L 74.475998 174.479004 L 74.475998 177.806 C 74.475998 177.85701 74.435997 177.89801 74.384003 177.89801 L 73.217003 177.89801 C 73.166 177.89801 73.135002 177.858002 73.135002 177.806 L 73.135002 171.234009 C 73.135002 171.184006 73.166 171.141998 73.217003 171.141998 L 74.425003 171.141998 C 74.464996 171.141998 74.486 171.171997 74.497002 171.193008 L 75.93 174.5 L 75.93 171.234009 Z M 76.667 177.283997 L 76.667 171.755997 C 76.667 171.684998 76.533997 171.664001 76.533997 171.755997 L 76.533997 177.018005 L 73.862 171.736008 C 73.832001 171.695007 73.749001 171.695007 73.749001 171.755997 L 73.749001 177.274002 C 73.749001 177.365997 73.872002 177.365997 73.872002 177.274002 L 73.872002 172.02301 L 76.533997 177.294006 C 76.573997 177.365997 76.667 177.345001 76.667 177.283997 Z M 86.457001 171.141998 C 87.152 171.141998 87.674004 171.337006 88.022003 171.714996 C 88.330002 172.053009 88.483002 172.555008 88.483002 173.169006 L 88.483002 175.882004 C 88.483002 177.12001 87.766998 177.89801 86.456001 177.89801 L 83.897003 177.89801 C 83.847 177.89801 83.816002 177.858002 83.816002 177.806 L 83.816002 171.234009 C 83.816002 171.184006 83.846001 171.141998 83.897003 171.141998 L 86.457001 171.141998 Z M 87.141998 175.574005 L 87.141998 173.475998 C 87.141998 172.831009 86.804001 172.421997 86.087997 172.421997 L 85.167 172.421997 L 85.167 176.619003 L 86.086998 176.619003 C 86.702003 176.619003 87.141998 176.219009 87.141998 175.574005 Z M 84.440002 171.766998 L 84.440002 177.274002 C 84.440002 177.314011 84.480003 177.324005 84.500999 177.324005 L 86.169998 177.324005 C 87.347 177.324005 87.879997 176.617996 87.879997 175.964005 L 87.879997 173.343002 C 87.879997 172.257996 87.306 171.705002 86.139999 171.705002 L 84.5 171.705002 C 84.480003 171.705002 84.439003 171.714996 84.439003 171.766998 Z M 87.755997 173.343002 L 87.755997 175.962997 C 87.755997 176.783005 86.936996 177.212997 86.169998 177.212997 L 84.563004 177.212997 L 84.563004 171.837997 L 86.139 171.837997 C 87.213997 171.837997 87.755997 172.319 87.755997 173.343002 Z M 103.385002 177.89801 C 103.334 177.89801 103.303001 177.858002 103.303001 177.806 L 103.303001 171.234009 C 103.303001 171.184006 103.333 171.141998 103.385002 171.141998 L 104.552002 171.141998 C 104.601997 171.141998 104.643997 171.182999 104.643997 171.234009 L 104.643997 177.806 C 104.643997 177.85701 104.602997 177.89801 104.552002 177.89801 L 103.385002 177.89801 Z M 103.917 171.755997 L 103.917 177.274002 C 103.917 177.365997 104.029999 177.365997 104.029999 177.274002 L 104.029999 171.755997 C 104.029999 171.684998 103.917 171.684998 103.917 171.755997 Z M 116.777 171.141998 C 116.829002 171.141998 116.870003 171.182999 116.870003 171.234009 L 116.870003 177.806 C 116.870003 177.85701 116.829002 177.89801 116.777 177.89801 L 115.662003 177.89801 C 115.630997 177.89801 115.580002 177.858002 115.580002 177.806 L 115.580002 174.018997 L 114.454002 177.837006 C 114.433998 177.876999 114.413002 177.89801 114.372002 177.89801 L 113.563004 177.89801 C 113.532997 177.89801 113.491997 177.878006 113.481003 177.837006 L 112.427002 173.947006 L 112.427002 177.806 C 112.427002 177.85701 112.387001 177.89801 112.334999 177.89801 L 111.198997 177.89801 C 111.157997 177.89801 111.126999 177.858002 111.126999 177.806 L 111.126999 171.234009 C 111.126999 171.184006 111.156998 171.141998 111.198997 171.141998 L 112.632004 171.141998 C 112.671997 171.141998 112.713997 171.171997 112.723999 171.20401 L 113.962997 175.348999 L 115.323997 171.20401 C 115.323997 171.173004 115.353996 171.141998 115.396004 171.141998 L 116.777 171.141998 Z M 116.142998 177.274002 C 116.142998 177.345001 116.276001 177.365997 116.276001 177.274002 L 116.276001 171.755997 C 116.276001 171.736008 116.246002 171.706009 116.213997 171.706009 L 115.734001 171.706009 C 115.692001 171.706009 115.681999 171.736008 115.662003 171.755997 L 113.961998 176.822998 L 112.274002 171.746002 C 112.274002 171.716003 112.253998 171.706009 112.222 171.706009 L 111.721001 171.706009 C 111.691002 171.706009 111.658997 171.736008 111.658997 171.766006 L 111.658997 177.274002 C 111.658997 177.345001 111.792999 177.365997 111.792999 177.274002 L 111.792999 171.837997 L 112.170998 171.837997 L 113.901001 177.03801 C 113.942001 177.110001 113.973 177.089005 114.024002 177.03801 L 115.764 171.837997 L 116.142998 171.837997 L 116.142998 177.274002 Z M 125.595001 171.141998 C 126.731003 171.141998 127.417 171.787003 127.417 172.985001 L 127.417 174.275009 C 127.417 175.37001 126.740997 176.10701 125.595001 176.10701 L 124.735001 176.10701 L 124.735001 177.806 C 124.735001 177.85701 124.694 177.89801 124.642998 177.89801 L 123.466003 177.89801 C 123.425003 177.89801 123.393997 177.858002 123.393997 177.806 L 123.393997 171.234009 C 123.393997 171.184006 123.424004 171.141998 123.466003 171.141998 L 125.595001 171.141998 Z M 126.074997 173.96701 L 126.074997 173.292007 C 126.074997 172.585999 125.748001 172.514008 125.031998 172.514008 L 124.735001 172.514008 L 124.735001 174.766006 L 125.031998 174.766006 C 125.595001 174.766006 126.075996 174.66301 126.075996 173.96701 Z M 126.803001 174.203003 L 126.803001 172.923004 C 126.803001 171.796997 125.932999 171.705002 125.461998 171.705002 L 124.080002 171.705002 C 124.059998 171.705002 124.017998 171.735001 124.017998 171.766998 L 124.017998 177.274002 C 124.017998 177.345001 124.140999 177.345001 124.140999 177.274002 L 124.140999 175.533997 L 125.370003 175.533997 C 126.269997 175.533997 126.803001 175.216003 126.803001 174.203003 Z M 124.140999 171.837997 L 125.460999 171.837997 C 126.598 171.837997 126.669998 172.585999 126.669998 172.923004 L 126.669998 174.203003 C 126.669998 175.247009 126.014 175.389999 125.370003 175.389999 L 124.140999 175.389999 L 124.140999 171.837997 Z M 137.298996 175.225998 C 137.154999 175.52301 136.951004 175.748001 136.664001 175.882004 L 137.524002 177.775009 C 137.554001 177.837006 137.514008 177.89801 137.451996 177.89801 L 136.192993 177.89801 C 136.153 177.89801 136.132004 177.878006 136.121002 177.847 L 135.322998 176.10701 L 134.800995 176.10701 L 134.800995 177.806 C 134.800995 177.85701 134.761002 177.89801 134.709 177.89801 L 133.531998 177.89801 C 133.490997 177.89801 133.460007 177.858002 133.460007 177.806 L 133.460007 171.234009 C 133.460007 171.184006 133.490005 171.141998 133.531998 171.141998 L 135.660995 171.141998 C 136.796997 171.141998 137.483002 171.787003 137.483002 172.985001 L 137.483002 174.275009 C 137.483002 174.632996 137.421005 174.971008 137.298996 175.225998 Z M 136.141998 173.957001 L 136.141998 173.292007 C 136.141998 172.574997 135.876007 172.503998 135.098007 172.503998 L 134.800995 172.503998 L 134.800995 174.766006 L 135.098007 174.766006 C 135.742996 174.766006 136.121002 174.755997 136.141998 173.957001 Z M 134.207001 177.274002 L 134.207001 175.524002 L 135.681 175.524002 L 136.541 177.294006 C 136.561005 177.345001 136.684006 177.324005 136.654007 177.233002 L 135.794006 175.492996 C 136.591995 175.380005 136.869003 174.960007 136.869003 174.203003 L 136.869003 172.923004 C 136.869003 171.796997 135.845001 171.705002 135.528 171.705002 L 134.145996 171.705002 C 134.126007 171.705002 134.084 171.735001 134.084 171.766998 L 134.084 177.274002 C 134.084 177.345001 134.207001 177.345001 134.207001 177.274002 Z M 136.746002 172.923996 L 136.746002 174.203003 C 136.746002 175.247009 136.080994 175.389999 135.436005 175.389999 L 134.207001 175.389999 L 134.207001 171.837997 L 135.526993 171.837997 C 136.632996 171.837997 136.746002 172.585999 136.746002 172.923004 Z M 146.115997 171.050003 C 146.996002 171.050003 147.610001 171.24501 147.998993 171.664001 C 148.306 172.001999 148.449005 172.484009 148.449005 173.169006 L 148.449005 175.861008 C 148.449005 176.567001 148.306 177.059006 147.998993 177.386002 C 147.600006 177.796005 146.996002 178 146.115997 178 C 145.205002 178 144.610992 177.796005 144.222 177.386002 C 143.925003 177.059006 143.761993 176.567001 143.761993 175.861008 L 143.761993 173.169006 C 143.761993 172.483002 143.925003 172.001999 144.222 171.654007 C 144.621994 171.244003 145.225006 171.050003 146.115997 171.050003 Z M 147.087997 175.554001 L 147.087997 173.507004 C 147.087997 172.606003 146.608002 172.421997 146.167999 172.421997 L 146.044006 172.421997 C 145.389008 172.421997 145.134003 172.84201 145.134003 173.507004 L 145.134003 175.554001 C 145.134003 176.45401 145.613998 176.649002 146.044006 176.649002 L 146.167007 176.649002 C 146.822006 176.649002 147.078003 176.209 147.087997 175.554001 Z M 144.406006 173.240997 L 144.406006 175.779007 C 144.406006 176.26001 144.529007 176.658997 144.815994 176.956009 C 145.082001 177.222 145.490997 177.365997 145.992996 177.365997 L 146.259003 177.365997 C 147.220993 177.365997 147.845993 176.751999 147.845993 175.779007 L 147.845993 173.240997 C 147.845993 172.197006 147.292999 171.634003 146.259003 171.634003 L 145.992996 171.634003 C 144.949005 171.634003 144.406006 172.197006 144.406006 173.240997 Z M 146.259003 177.233002 L 145.992996 177.233002 C 145.511993 177.233002 145.153 177.110001 144.897995 176.852997 C 144.643005 176.596008 144.507996 176.240005 144.507996 175.779007 L 144.507996 173.240997 C 144.507996 172.268005 145.031006 171.755997 145.992996 171.755997 L 146.259003 171.755997 C 147.231995 171.755997 147.712997 172.257996 147.712997 173.240997 L 147.712997 175.779007 C 147.712997 176.209 147.580002 176.598007 147.302994 176.863998 C 147.010147 177.107574 146.639877 177.238449 146.259003 177.233002 Z M 155.710999 171.203003 L 156.837006 175.44101 L 157.994003 171.20401 C 158.014008 171.173004 158.033997 171.141998 158.076004 171.141998 L 159.242996 171.141998 C 159.304001 171.141998 159.345001 171.193008 159.324005 171.255005 L 157.554001 177.837006 C 157.533997 177.876999 157.513 177.89801 157.472 177.89801 L 156.201996 177.89801 C 156.171997 177.89801 156.141006 177.878006 156.130997 177.837006 L 154.360001 171.255005 C 154.350006 171.193008 154.389999 171.141998 154.451996 171.141998 L 155.628998 171.141998 C 155.669998 171.141998 155.690994 171.171997 155.710999 171.20401 Z M 156.817001 177.192001 L 155.106995 171.736008 C 155.076996 171.654007 154.964005 171.706009 154.994995 171.766006 L 156.694 177.233002 C 156.733994 177.386002 156.897995 177.395996 156.949997 177.233002 L 158.587006 171.766998 C 158.606995 171.705002 158.494995 171.664001 158.475006 171.736008 Z M 165.429001 177.89801 C 165.378006 177.89801 165.347 177.858002 165.347 177.806 L 165.347 171.234009 C 165.347 171.184006 165.378006 171.141998 165.429001 171.141998 L 168.908997 171.141998 C 168.960999 171.141998 169.001999 171.182999 169.001999 171.234009 L 169.001999 172.330002 C 169.001999 172.380005 168.960999 172.421997 168.908997 172.421997 L 166.699005 172.421997 L 166.699005 173.814011 L 168.419006 173.814011 C 168.468994 173.814011 168.5 173.854004 168.5 173.906006 L 168.5 175.022003 C 168.5 175.072006 168.470001 175.113998 168.417999 175.113998 L 166.697998 175.113998 L 166.697998 176.619003 L 168.908997 176.619003 C 168.960999 176.619003 169.001999 176.658997 169.001999 176.710999 L 169.001999 177.806 C 169.001999 177.85701 168.960999 177.89801 168.908997 177.89801 L 165.429001 177.89801 Z M 165.940994 171.78801 L 165.940994 177.233002 C 165.940994 177.294006 165.981003 177.315002 166.022995 177.315002 L 168.376999 177.315002 C 168.468994 177.315002 168.449005 177.192001 168.376999 177.192001 L 166.074005 177.192001 L 166.074005 174.520004 L 167.957001 174.520004 C 168.018997 174.520004 168.018997 174.376999 167.957001 174.376999 L 166.074005 174.376999 L 166.074005 171.837997 L 168.376999 171.837997 C 168.449005 171.837997 168.468994 171.705002 168.376999 171.705002 L 166.022995 171.705002 C 166.001083 171.704453 165.979904 171.712906 165.964401 171.728409 C 165.948898 171.743912 165.940445 171.765091 165.940994 171.787003 Z M 177.972 171.141998 C 178.667999 171.141998 179.190002 171.337006 179.537994 171.714996 C 179.845993 172.053009 179.998993 172.555008 179.998993 173.169006 L 179.998993 175.882004 C 179.998993 177.12001 179.283005 177.89801 177.972 177.89801 L 175.412994 177.89801 C 175.363007 177.89801 175.330994 177.858002 175.330994 177.806 L 175.330994 171.234009 C 175.330994 171.184006 175.362 171.141998 175.412994 171.141998 L 177.973007 171.141998 Z M 178.658005 175.574005 L 178.658005 173.475998 C 178.658005 172.831009 178.320007 172.421997 177.604004 172.421997 L 176.682999 172.421997 L 176.682999 176.619003 L 177.602997 176.619003 C 178.218002 176.619003 178.658005 176.219009 178.658005 175.574005 Z M 175.955994 171.766998 L 175.955994 177.274002 C 175.955994 177.314011 175.996002 177.324005 176.016998 177.324005 L 177.686005 177.324005 C 178.863007 177.324005 179.395996 176.617996 179.395996 175.964005 L 179.395996 173.343002 C 179.395996 172.257996 178.822006 171.705002 177.656006 171.705002 L 176.016998 171.705002 C 175.996994 171.705002 175.955994 171.714996 175.955994 171.766998 Z M 179.272003 173.343002 L 179.272003 175.962997 C 179.272003 176.783005 178.453003 177.212997 177.686005 177.212997 L 176.078995 177.212997 L 176.078995 171.837997 L 177.654999 171.837997 C 178.729996 171.837997 179.272003 172.319 179.272003 173.343002 Z"/>
</svg>
